<svg xmlns="http://www.w3.org/2000/svg" viewBox="0 0 16 16">
    <path class="repro" d="m6 2-4 4v4l4 4v-5l1-1-1-1z"/>
    <path class="repro" d="m1.3 5c-1.0834 0-1.3 1.1633-1.3 2.4v1.2c0 1.2367 0.24312 2.4 1.3 2.4h1.7v-6z"/>
    <path class="wave" id="wave1" fill-rule="evenodd" d="m8.629 5-1.4195 1.4096c0.79053 0.64658 0.79053 1.396 0.79053 1.5904 0 0.19326-0.017801 0.94087-0.791 1.59l1.4199 1.41c1.2177-1.0473 1.3711-2.4015 1.3711-3 0-0.5995-0.14552-1.9371-1.371-3z"/>
    <path class="wave" id="wave2" fill-rule="evenodd" d="m11 3.1157-1.4103 1.4104c0.78263 0.78263 1.4103 2.0429 1.4103 3.4739 0 1.4309-0.62723 2.691-1.4103 3.474l1.4103 1.41c1.2756-1.2756 2-3.0299 2-4.884 0-1.8456-0.72693-3.6113-2-4.8843z"/>
    <path class="wave" id="wave3" fill-rule="evenodd" d="m13.141 1-1.4142 1.4136c1.0819 1.0819 2.264 3.0332 2.2736 5.5864 0 2.5515-1.1929 4.5058-2.2736 5.5864l1.4142 1.4136c1.4551-1.4551 2.8785-4 2.8594-7 0.035061-3-1.4049-5.5455-2.8594-7z"/>
    <path class="cross" stroke-width="2" d="M 9 5 l 6 6 M 9 11 l 6 -6"/>
</svg>
